<?xml version="1.0" standalone="no"?>
<!DOCTYPE svg PUBLIC "-//W3C//DTD SVG 20010904//EN"
 "http://www.w3.org/TR/2001/REC-SVG-20010904/DTD/svg10.dtd">
<svg version="1.0" xmlns="http://www.w3.org/2000/svg"
 width="100.00pt" height="130.00pt" viewBox="0 0 662.000000 602.000000"
 preserveAspectRatio="xMidYMid meet">
<g transform="translate(0.000000,602.000000) scale(0.100000,-0.100000)"
fill="#000000" stroke="none">
<path d="M3100 5904 c-19 -2 -96 -8 -170 -14 -211 -17 -516 -76 -625 -121 -29
-12 -104 -39 -145 -51 -19 -6 -76 -30 -126 -54 -50 -24 -94 -44 -98 -44 -5 0
-46 -22 -93 -50 -47 -27 -87 -50 -89 -50 -3 0 -17 -8 -32 -19 -15 -10 -63 -42
-107 -72 -44 -29 -84 -57 -90 -61 -5 -5 -32 -25 -60 -45 -84 -62 -264 -225
-376 -339 -92 -95 -309 -360 -309 -378 0 -4 -8 -19 -19 -34 -85 -123 -214
-369 -251 -482 -5 -14 -18 -50 -30 -80 -41 -104 -88 -296 -115 -465 -35 -225
-27 -709 15 -920 11 -55 27 -138 35 -185 8 -47 21 -107 30 -135 8 -27 23 -79
34 -115 74 -253 79 -269 161 -470 122 -305 143 -345 244 -475 135 -174 436
-431 675 -577 29 -18 64 -40 76 -48 142 -92 399 -230 550 -294 50 -21 98 -42
108 -47 33 -17 258 -89 278 -89 11 0 29 -5 40 -11 25 -13 233 -35 474 -49 105
-6 222 -15 260 -20 74 -10 482 13 540 30 17 5 55 12 85 15 30 4 78 13 105 20
28 8 79 21 115 30 73 19 154 47 300 105 180 71 439 227 616 371 256 207 575
570 710 807 81 142 131 240 174 337 12 28 28 61 35 75 24 48 113 326 135 425
13 55 29 125 36 155 8 30 14 70 14 90 0 19 7 73 16 120 22 121 22 673 0 815
-8 55 -20 132 -25 170 -10 65 -19 110 -51 240 -19 78 -52 189 -60 200 -4 6
-11 26 -15 45 -4 19 -11 40 -15 45 -4 6 -11 21 -15 35 -7 25 -49 117 -110 241
-60 121 -167 281 -275 410 -143 172 -387 392 -555 500 -38 25 -95 61 -125 81
-60 39 -301 158 -365 181 -22 8 -78 29 -125 47 -83 32 -183 62 -268 80 -23 5
-50 14 -60 19 -9 5 -42 12 -72 16 -30 4 -82 13 -115 20 -142 32 -287 47 -600
65 -168 9 -206 10 -275 4z m575 -185 c119 -9 371 -45 387 -55 3 -2 37 -10 75
-18 97 -20 169 -42 318 -98 121 -46 241 -101 330 -153 33 -19 67 -38 75 -42
18 -8 160 -105 215 -147 283 -214 553 -545 697 -856 74 -158 85 -185 121 -300
57 -183 86 -313 119 -545 17 -121 17 -654 0 -795 -24 -190 -76 -424 -129 -580
-50 -149 -156 -384 -213 -475 -13 -22 -29 -48 -35 -57 -5 -9 -23 -38 -39 -65
-111 -183 -390 -489 -593 -651 -103 -82 -312 -223 -413 -280 -142 -79 -352
-176 -492 -228 -21 -8 -55 -20 -75 -28 -21 -8 -69 -25 -108 -37 -38 -12 -86
-28 -105 -35 -74 -27 -98 -27 -131 0 -17 14 -42 29 -56 32 -14 4 -98 -1 -187
-10 -289 -30 -637 0 -896 79 -25 7 -60 16 -78 20 -18 4 -45 13 -60 21 -15 8
-32 14 -39 14 -7 0 -27 6 -45 14 -18 8 -58 24 -88 36 -121 48 -276 132 -425
228 -91 60 -257 192 -362 289 -112 104 -297 304 -343 371 -14 21 -50 71 -81
112 -30 41 -86 129 -125 195 -64 108 -87 153 -164 319 -77 165 -156 451 -197
716 -24 158 -25 657 -1 770 9 41 19 97 22 123 6 50 58 245 81 307 7 19 24 62
36 95 13 33 27 64 31 70 4 5 8 16 8 25 0 16 5 27 65 136 86 157 130 226 224
349 182 238 471 504 730 671 47 31 98 65 113 75 15 10 34 19 41 19 8 0 20 7
27 15 7 8 17 15 22 15 5 0 35 15 66 33 54 31 80 43 192 89 25 10 53 23 62 28
22 12 134 50 149 50 6 0 25 6 42 14 53 22 171 56 196 56 13 0 47 7 75 15 88
25 216 44 376 55 85 6 166 13 180 15 36 5 253 -3 405 -16z"/>
<path d="M3135 5540 c-151 -15 -273 -31 -330 -45 -33 -8 -94 -21 -135 -31 -41
-9 -91 -22 -110 -29 -19 -8 -71 -25 -115 -38 -83 -26 -270 -105 -340 -143 -22
-13 -62 -35 -90 -50 -27 -14 -100 -59 -161 -99 -386 -253 -722 -607 -909 -960
-62 -117 -60 -113 -80 -165 -9 -25 -23 -58 -31 -75 -13 -29 -35 -95 -67 -205
-28 -94 -55 -249 -67 -388 -19 -203 -2 -542 34 -697 8 -33 22 -94 31 -135 23
-99 72 -259 101 -327 8 -18 20 -48 28 -65 45 -110 61 -145 71 -158 5 -8 19
-33 30 -55 19 -40 98 -175 158 -270 87 -137 287 -376 434 -515 105 -101 283
-235 406 -308 49 -29 91 -52 93 -52 3 0 39 -16 80 -35 41 -19 78 -35 82 -35 4
0 19 -6 34 -14 15 -8 42 -17 60 -21 18 -3 49 -12 68 -19 140 -53 282 -68 715
-73 569 -7 747 17 1125 152 68 25 295 139 380 192 107 66 310 227 416 330 289
279 512 616 627 948 62 180 78 239 98 360 5 33 14 80 20 105 41 164 19 864
-32 1045 -6 22 -15 65 -20 95 -11 76 -62 256 -99 350 -12 30 -24 64 -27 75 -3
11 -35 80 -70 154 -184 379 -450 668 -810 879 -67 40 -124 72 -127 72 -5 0
-57 23 -171 75 -48 22 -153 55 -174 55 -11 0 -22 4 -25 8 -5 8 -80 27 -266 67
-41 9 -119 21 -172 26 -54 5 -144 13 -200 19 -114 10 -355 10 -463 0z m505
-134 c222 -4 273 -10 380 -44 71 -22 147 -96 176 -172 29 -75 54 -180 54 -227
0 -21 5 -45 10 -53 8 -13 11 -12 25 5 33 43 63 113 75 180 20 104 24 107 117
59 43 -21 127 -67 187 -101 60 -35 112 -63 116 -63 12 0 54 -50 47 -57 -4 -3
-42 -1 -85 5 -106 17 -133 15 -194 -9 -120 -47 -267 -195 -393 -396 -16 -26
-38 -49 -47 -51 -16 -3 -18 7 -18 107 0 69 -5 126 -14 153 -8 24 -18 61 -22
83 -18 101 -95 227 -187 306 -68 59 -88 71 -172 102 -73 26 -233 70 -320 87
-180 35 -325 72 -325 82 0 14 30 14 590 4z m-958 -117 c19 -49 24 -243 8 -314
-33 -150 -53 -190 -96 -190 -24 0 -29 -4 -29 -24 0 -32 -78 -77 -95 -55 -19
22 -2 52 40 71 45 21 49 30 18 42 -13 5 -41 25 -63 44 -38 33 -40 37 -38 87 2
37 13 74 40 128 64 130 163 267 188 259 5 -2 18 -24 27 -48z m-410 -219 c-5
-174 -17 -213 -70 -218 -26 -3 -39 3 -67 31 -31 31 -35 41 -35 87 0 35 9 69
27 108 34 72 99 144 127 140 20 -3 21 -8 18 -148z m943 110 c322 -29 390 -44
483 -103 120 -76 180 -199 207 -418 16 -128 14 -185 -14 -379 -18 -122 -83
-268 -159 -355 -23 -27 -107 -95 -117 -95 -5 0 -16 -6 -24 -14 -24 -20 -145
-53 -236 -65 -118 -16 -334 12 -490 63 -22 8 -65 21 -95 31 -30 9 -95 33 -145
52 -87 34 -118 46 -187 77 -51 23 -111 47 -138 56 -14 5 -50 18 -80 30 -164
63 -242 80 -277 61 -12 -6 -35 -32 -52 -57 -26 -40 -31 -57 -31 -108 0 -34 4
-66 8 -72 9 -13 89 -54 106 -54 7 0 19 -7 26 -15 28 -33 70 -3 70 50 0 47 18
54 47 19 89 -108 118 -128 349 -235 23 -10 48 -19 56 -19 8 0 23 -7 34 -15 10
-8 26 -15 35 -15 21 0 98 -32 244 -102 107 -51 178 -103 244 -177 60 -68 151
-225 151 -261 0 -11 6 -34 14 -52 25 -59 38 -150 43 -307 6 -148 -4 -279 -38
-536 -17 -123 -28 -361 -22 -455 12 -194 90 -316 236 -371 55 -21 78 -24 207
-23 136 0 148 2 195 26 62 32 78 50 99 113 20 57 33 321 18 344 -12 17 -112
41 -173 41 -59 0 -83 17 -71 50 5 14 13 50 17 80 4 30 12 61 17 68 12 14 303
18 312 4 32 -52 61 -573 40 -727 -15 -118 -72 -187 -175 -215 -22 -6 -192 -9
-424 -8 l-388 3 -18 65 c-41 154 -62 392 -49 556 12 149 36 421 51 580 12 129
3 275 -25 429 -22 122 -39 167 -135 353 -24 46 -163 176 -221 205 -30 16 -62
32 -70 37 -15 9 -80 38 -150 68 -19 8 -48 21 -63 28 -16 8 -33 14 -39 14 -5 0
-24 6 -41 14 -18 7 -57 23 -87 36 -30 12 -68 28 -85 35 -16 7 -50 21 -75 31
-25 9 -64 26 -87 36 -23 10 -45 18 -48 18 -3 0 -44 25 -91 55 -97 61 -159 127
-200 212 -24 50 -27 70 -27 150 1 260 120 381 318 322 17 -4 64 -18 105 -30
41 -12 107 -32 145 -45 39 -14 108 -38 155 -54 47 -16 110 -39 140 -50 30 -12
69 -26 85 -30 17 -5 71 -23 120 -40 137 -47 151 -51 246 -71 77 -16 104 -17
197 -8 158 15 234 27 245 38 6 6 18 11 27 11 17 0 86 70 108 108 7 13 22 51
32 85 17 52 20 92 20 258 0 108 -4 209 -9 225 -5 16 -12 46 -16 66 -18 110
-171 185 -358 176 -98 -5 -152 -28 -181 -78 -17 -29 -21 -57 -24 -170 -2 -74
-7 -139 -11 -143 -15 -16 -41 7 -114 102 -87 112 -113 165 -98 196 12 23 37
93 53 145 5 19 14 40 18 45 4 6 11 26 15 45 4 19 16 45 27 57 22 24 54 24 293
3z m-1242 -230 c8 -60 5 -64 -51 -75 -38 -7 -92 10 -92 30 0 16 110 107 124
102 6 -2 14 -28 19 -57z m1414 -145 c80 -97 91 -358 22 -512 -10 -23 -19 -47
-19 -53 0 -33 -69 -27 -375 35 -105 21 -224 44 -280 54 -82 15 -167 33 -220
46 -27 7 -75 18 -105 24 -30 6 -82 18 -115 26 -33 7 -82 19 -110 25 -27 6 -72
18 -100 25 -199 53 -283 58 -366 21 -59 -26 -133 -98 -161 -156 -34 -72 -48
-109 -48 -128 0 -12 -5 -33 -11 -49 -16 -42 -31 -248 -24 -324 12 -121 102
-222 255 -287 30 -13 69 -30 87 -38 17 -8 39 -14 50 -14 10 0 27 -7 37 -15 11
-8 29 -15 40 -15 12 0 33 -6 48 -14 15 -8 41 -17 58 -21 17 -4 43 -13 58 -21
15 -8 32 -14 39 -14 7 0 27 -6 45 -14 18 -8 58 -24 88 -36 30 -12 98 -43 150
-68 123 -60 261 -182 317 -279 21 -36 46 -77 55 -92 22 -32 22 -32 47 -109 12
-34 21 -70 21 -80 0 -10 5 -23 11 -29 5 -5 14 -54 19 -107 6 -54 14 -136 20
-183 7 -54 10 -322 9 -716 -1 -603 0 -631 18 -641 102 -61 409 -113 728 -123
115 -4 203 -2 245 6 36 6 88 15 117 20 52 10 181 68 219 99 44 37 44 41 43
509 -1 246 -4 461 -8 478 -3 16 -16 34 -27 40 -12 6 -28 15 -35 21 -16 11 -91
35 -189 60 -40 10 -123 18 -215 21 l-150 5 -36 -29 c-72 -56 -79 -76 -79 -228
0 -132 0 -135 25 -151 17 -11 36 -14 62 -10 41 6 64 -9 126 -84 27 -32 29 -37
22 -99 -4 -36 -13 -81 -20 -98 l-14 -33 -150 0 c-85 0 -152 4 -156 10 -27 43
-38 668 -15 848 16 125 24 139 65 119 82 -41 355 -70 768 -83 206 -6 229 -9
238 -25 6 -12 8 -261 7 -669 l-3 -651 -35 -32 c-48 -46 -126 -99 -180 -124
-93 -42 -121 -53 -141 -53 -11 0 -30 -5 -42 -12 -33 -17 -253 -37 -502 -44
-278 -9 -768 4 -790 20 -9 6 -22 38 -30 71 -7 33 -18 78 -23 100 -6 22 -18 98
-27 170 -14 113 -16 231 -13 905 l3 775 -24 75 c-27 83 -84 161 -138 189 -78
40 -123 59 -188 80 -38 13 -84 29 -102 37 -17 8 -40 14 -51 14 -12 0 -23 4
-27 9 -3 5 -19 13 -36 16 -29 7 -81 27 -154 60 -16 8 -64 29 -105 48 -41 19
-90 41 -109 48 -38 15 -287 140 -420 210 -53 28 -86 52 -92 67 -15 38 -10 397
6 487 8 44 15 95 15 113 0 62 52 238 92 312 69 129 158 203 277 230 87 20 188
10 351 -37 30 -8 80 -22 110 -30 30 -8 69 -19 85 -25 17 -5 53 -16 80 -23 46
-12 72 -20 205 -61 125 -38 189 -56 230 -65 25 -5 53 -14 63 -20 9 -5 39 -12
65 -15 26 -4 72 -13 102 -20 74 -19 137 -17 187 5 66 31 75 53 81 199 3 77 9
130 16 134 6 4 23 8 38 8 15 0 30 5 33 10 12 19 34 10 62 -25z m1445 -70 c129
-32 213 -58 228 -71 21 -21 40 -115 47 -231 5 -98 4 -103 -15 -103 -11 0 -46
17 -78 39 -235 154 -398 161 -527 21 -43 -46 -61 -78 -96 -166 l-43 -108 0
-141 c-1 -147 -3 -139 56 -265 28 -61 37 -75 84 -140 93 -126 196 -222 679
-633 173 -146 339 -314 401 -405 45 -66 51 -92 28 -112 -8 -6 -16 -24 -18 -38
-2 -18 -9 -27 -20 -27 -9 0 -79 59 -155 131 -262 247 -479 440 -693 614 -30
25 -57 47 -60 50 -3 3 -27 23 -55 45 -118 93 -274 227 -322 277 -51 52 -123
175 -123 210 0 9 -7 43 -15 75 -20 76 -20 264 0 329 8 27 15 57 15 67 0 27 69
194 108 261 53 92 124 177 189 226 73 57 113 76 188 94 79 19 121 19 197 1z
m551 -337 c32 -56 60 -180 52 -232 -19 -122 -70 -226 -157 -320 -98 -107 -201
-150 -301 -124 -48 12 -127 75 -127 102 0 6 -7 25 -16 41 -9 17 -18 57 -21 90
-7 97 -9 101 -56 119 -23 9 -50 16 -59 16 -25 0 -55 -44 -68 -100 -13 -56 0
-119 46 -209 35 -70 181 -215 289 -287 91 -60 175 -119 273 -187 28 -20 76
-53 105 -73 147 -103 236 -188 276 -265 18 -33 21 -58 21 -149 0 -60 -4 -111
-8 -114 -4 -2 -53 39 -107 93 -55 53 -138 131 -185 172 -47 40 -89 79 -95 85
-9 10 -66 58 -185 156 -51 42 -224 180 -314 251 -124 98 -232 237 -276 356
-35 94 -35 252 0 336 77 188 162 235 310 173 32 -14 79 -54 161 -140 113 -117
118 -121 150 -114 93 17 127 63 210 281 19 49 42 85 55 85 1 0 13 -19 27 -42z
m-4303 -343 c0 -16 7 -55 15 -85 22 -81 21 -407 -1 -453 -15 -32 -15 -35 11
-73 60 -88 162 -125 385 -139 103 -6 205 -30 233 -53 14 -12 17 -32 17 -106 0
-50 5 -145 11 -211 5 -66 14 -178 19 -250 18 -265 113 -443 282 -529 74 -38
132 -51 273 -62 69 -6 123 9 176 47 13 10 26 2 74 -44 55 -54 57 -58 52 -97
-3 -22 -13 -52 -22 -67 l-17 -26 -242 5 c-189 4 -249 8 -276 21 -80 36 -108
47 -117 47 -24 0 -142 120 -179 182 -48 81 -52 94 -98 303 -17 75 -34 145 -51
210 -7 28 -16 68 -20 90 -6 38 -24 95 -59 192 -25 68 -83 139 -144 178 -54 34
-60 35 -149 35 -93 0 -93 0 -133 -36 l-40 -36 0 -90 c0 -83 2 -93 36 -155 19
-36 42 -72 50 -80 7 -8 14 -18 14 -22 0 -14 -34 -37 -81 -55 -25 -9 -54 -22
-64 -29 -16 -12 -14 -16 26 -45 24 -18 49 -32 56 -32 28 0 5 -94 -39 -158
l-31 -44 29 -24 c16 -13 34 -23 39 -24 18 0 95 -75 95 -92 0 -13 -39 -52 -85
-86 -5 -4 -29 -22 -53 -41 -24 -19 -47 -30 -51 -25 -20 23 -75 303 -103 524
-14 110 -14 532 -1 590 23 96 72 215 90 219 22 4 43 20 43 33 0 5 -23 30 -51
56 -28 26 -55 56 -59 67 -12 33 18 216 55 330 8 22 17 56 20 75 4 19 16 54 27
79 15 35 21 42 28 31 6 -8 10 -28 10 -45z m2905 -77 c3 -35 13 -97 21 -138 17
-85 13 -117 -19 -129 -39 -15 -194 -24 -202 -12 -7 12 140 321 159 333 26 17
34 6 41 -54z m1561 -105 c8 -21 27 -74 41 -117 23 -71 25 -84 14 -125 -7 -31
-23 -56 -46 -77 -19 -17 -35 -34 -35 -38 0 -4 34 -41 75 -83 72 -71 75 -77 75
-121 0 -25 -7 -73 -15 -106 -8 -34 -15 -72 -17 -86 -2 -14 -8 -25 -15 -25 -17
0 -503 474 -503 491 0 7 38 32 84 56 46 24 110 57 142 73 68 35 151 114 160
153 13 53 19 54 40 5z m-1486 -478 c8 -104 15 -235 18 -290 4 -94 -14 -493
-24 -543 l-4 -22 -277 2 -277 3 -18 80 c-31 134 -11 499 29 512 5 2 33 -21 61
-52 47 -51 82 -127 82 -178 0 -8 9 -26 21 -41 29 -36 93 -37 132 0 28 25 28
26 25 142 l-3 116 -65 34 c-64 34 -116 50 -255 77 -158 31 -200 51 -293 139
-73 69 -145 163 -138 181 7 18 26 19 146 1 52 -8 124 -17 160 -20 36 -3 147
-13 246 -22 178 -16 183 -16 245 3 36 11 87 35 114 52 27 17 52 28 56 24 3 -5
12 -93 19 -198z m-2658 -346 c3 -24 7 -72 7 -106 2 -114 69 -425 117 -541 8
-18 14 -37 14 -43 0 -46 132 -262 209 -342 62 -64 199 -167 222 -167 6 0 25
-6 42 -14 95 -42 142 -50 305 -54 104 -2 174 0 195 7 27 10 34 9 44 -6 7 -9
13 -27 13 -39 0 -12 7 -27 15 -34 23 -19 18 -46 -17 -85 -56 -65 -89 -75 -245
-75 -190 0 -295 24 -448 102 -217 111 -414 372 -525 697 -56 164 -98 399 -101
572 -2 113 8 144 54 167 63 30 90 20 99 -39z m3128 34 c174 -92 467 -375 690
-667 47 -61 90 -120 97 -131 67 -109 93 -161 99 -190 7 -37 7 -37 -77 -64 -85
-27 -96 -11 -79 109 25 176 27 157 -13 176 -31 15 -42 16 -78 5 -23 -7 -55
-22 -71 -34 -22 -17 -33 -19 -46 -11 -9 6 -63 89 -119 185 -56 96 -126 201
-157 235 -99 110 -241 174 -386 174 -97 0 -105 8 -95 87 9 75 33 132 59 144
32 14 136 3 176 -18z m-2159 -80 c53 -27 99 -62 160 -123 109 -108 139 -166
139 -271 0 -103 -38 -179 -140 -281 -121 -119 -223 -157 -348 -128 -150 35
-283 190 -317 368 -26 134 10 246 113 354 78 82 153 118 248 118 63 0 81 -4
145 -37z m2089 -320 c138 -58 223 -147 317 -333 18 -36 33 -69 33 -75 0 -5 7
-23 16 -40 9 -16 22 -51 30 -78 7 -26 20 -71 29 -100 15 -49 30 -115 53 -237
46 -240 41 -466 -12 -575 -8 -16 -17 -38 -20 -47 -15 -48 -68 -3 -120 100 -42
85 -61 153 -76 272 -16 127 -23 144 -56 136 -36 -9 -54 9 -54 56 0 56 16 81
46 74 18 -5 26 -2 31 10 11 29 -28 314 -50 374 -45 118 -117 211 -214 276 -76
51 -84 60 -73 90 6 14 10 43 10 64 0 60 28 68 110 33z m656 -540 c19 -85 90
-179 179 -239 30 -19 57 -44 60 -54 12 -39 -41 -119 -134 -199 -69 -60 -85
-59 -105 8 -7 25 -28 78 -46 116 -30 67 -31 74 -25 155 13 176 52 295 71 213z
m-3795 -80 c10 -12 14 -46 12 -130 -1 -74 2 -113 9 -113 6 0 28 16 49 35 54
48 71 46 92 -14 9 -27 17 -62 17 -78 0 -36 -43 -102 -105 -163 -37 -37 -49
-43 -63 -34 -22 14 -98 107 -163 203 -77 111 -71 142 44 254 61 59 85 68 108
40z m299 -353 c11 -21 20 -50 20 -63 0 -13 6 -43 14 -68 8 -24 17 -60 20 -80
4 -20 15 -44 26 -54 20 -18 21 -18 48 8 15 15 44 54 62 87 57 98 70 80 63 -81
-5 -109 -31 -232 -59 -274 -20 -31 -51 -32 -105 -5 -54 28 -109 80 -154 144
-60 88 -64 150 -17 306 40 135 49 144 82 80z m525 -236 c19 -29 55 -169 55
-212 0 -31 32 -96 63 -130 52 -57 131 33 186 212 11 38 21 76 21 83 0 25 30
73 45 73 8 0 18 -12 21 -27 4 -16 11 -33 15 -39 5 -6 18 -39 29 -74 48 -150 2
-442 -82 -523 -28 -27 -31 -28 -106 -21 -143 12 -282 91 -335 189 -19 34 -22
56 -21 146 0 103 9 152 51 279 8 25 16 51 19 58 6 19 20 14 39 -14z"/>
<path d="M2152 2778 c-5 -7 -13 -42 -17 -78 -3 -36 -10 -78 -14 -95 -14 -52
-8 -55 104 -55 117 0 116 -1 134 82 7 31 7 57 0 84 -18 66 -32 74 -119 74 -50
0 -81 -4 -88 -12z"/>
</g>
</svg>
